<svg xmlns="http://www.w3.org/2000/svg" width="32" height="32" viewBox="0 0 32 32" fill="#131313"><title>bas127 - Regular</title><g id="bas127"><g id="Regular-10" data-name="Regular"><path d="M28,5H24.121L19.561.439a1.5,1.5,0,0,0-2.122,2.122L19.879,5H11.121l2.44-2.439A1.5,1.5,0,0,0,11.439.439L6.879,5H3A3,3,0,0,0,0,8v4.5A1.5,1.5,0,0,0,1.5,14h.713L3.67,23.466A4.144,4.144,0,0,0,7.788,27H23.212a4.144,4.144,0,0,0,4.118-3.533L28.787,14H29.5A1.5,1.5,0,0,0,31,12.5V8A3,3,0,0,0,28,5ZM3,8H28v3H3ZM24.365,23.011A1.16,1.16,0,0,1,23.212,24H7.788a1.16,1.16,0,0,1-1.153-.99L5.248,14h20.5ZM17,20.5v-3a1.5,1.5,0,0,1,3,0v3a1.5,1.5,0,0,1-3,0Zm-7,0v-3a1.5,1.5,0,0,1,3,0v3a1.5,1.5,0,0,1-3,0Z"/></g></g></svg>